<?xml version="1.0" encoding="UTF-8"?>
<svg id="Capa_1" xmlns="http://www.w3.org/2000/svg" xmlns:xlink="http://www.w3.org/1999/xlink" version="1.1" viewBox="0 0 1776.98 509.65">
  <!-- Generator: Adobe Illustrator 30.5.1, SVG Export Plug-In . SVG Version: 2.1.4 Build 3)  -->
  <defs>
    <style>
      .st0 {
        fill: #4153cd;
      }

      .st1 {
        fill: url(#Degradado_sin_nombre_990);
      }

      .st2 {
        fill: url(#Degradado_sin_nombre_962);
      }

      .st3 {
        fill: #767785;
      }
    </style>
    <linearGradient id="Degradado_sin_nombre_990" data-name="Degradado sin nombre 990" x1="731" y1="127.86" x2="886.8" y2="127.86" gradientUnits="userSpaceOnUse">
      <stop offset="0" stop-color="#4153cd"/>
      <stop offset=".18" stop-color="#4153cd"/>
    </linearGradient>
    <linearGradient id="Degradado_sin_nombre_962" data-name="Degradado sin nombre 962" x1="909.41" y1="127.86" x2="1048.74" y2="127.86" gradientUnits="userSpaceOnUse">
      <stop offset="0" stop-color="#4153cd"/>
      <stop offset=".22" stop-color="#4153cd"/>
    </linearGradient>
  </defs>
  <g>
    <g id="back_walls">
      <g>
        <polygon class="st3" points="352.77 420.51 322.76 428.73 261.42 427.51 288.21 418.88 352.77 420.51"/>
        <path class="st3" d="M288.07,416.65c-.2-3.04-.47-6.08-.83-9.11.11.92.22,1.84,0-.01-.21-1.82-.11-.92,0-.01-2.88-24.67-11.11-48.84-25.39-69.28-14.33-20.52-34.57-36.59-58.22-44.99-11.85-4.21-24.35-6.52-36.91-6.97-6.21-.22-12.43.01-18.61.67-1.48.15-2.95.34-4.42.54-.25.04-.63.09-.88.13h0s-5.76.83-9.27,1.64c.37-.09.77-.15.02,0-.76.16-.37.09,0,0-2.94.62-5.86,1.34-8.75,2.15-.52.15-.62.55-.89,1.01-1.21,2.04-2.42,4.09-3.63,6.13-2.73,4.61-5.46,9.22-8.2,13.83-.11.19-.23.39-.35.58,2.91-.92,5.85-1.75,8.81-2.48,1.39-.34,2.79-.66,4.19-.97.7-.15,1.39-.29,2.09-.43.24-.05,1.46-.28,1.77-.33,24.43-4.46,50.26-1.72,72.46,9.77,22.12,11.45,39.1,30.92,49.02,53.62,7.61,17.41,11.12,36.41,11.32,55.37,8.76-2.82,17.52-5.64,26.27-8.46.15-.05.3-.1.46-.14.2-.07-.06-1.98-.07-2.26Z"/>
        <polygon class="st3" points="124.48 291.51 111.76 312.95 85.9 238.59 95.43 210.28 124.48 291.51"/>
        <path class="st3" d="M393.42,333.57c-5.79-.82-11.73-.25-17.12,2.09-1.16.52-2.31,1.08-3.46,1.61-7.27,3.38-14.53,6.76-21.79,10.13,11.31-4.94,23.98-2.48,34.52,3.19,2.67,1.43,5.22,3.06,7.68,4.84,1.14.82,2.25,1.68,3.35,2.56.56.45,1.11.91,1.65,1.37.13.11.99.98,1.11.94,1.31-.5,2.63-1,3.94-1.49,7.41-2.8,15.45-6.24,22.86-9.04-.67-.59-1.69-1.45-2.37-2.03-.68-.57-19-12.59-30.36-14.17Z"/>
      </g>
      <g>
        <g>
          <path class="st3" d="M354.86,227.59c-4.18-11.45-10.64-22.03-18.34-31.45-7.83-9.59-17.07-18.1-27.38-24.96-10.08-6.7-21.42-12.05-33.39-14.21-11.45-2.06-24.25-1.01-33.55,6.62-1.24,1.02-2.36,2.14-3.42,3.3-.27.29-.51.6-.77.9-.6.7-1.2,1.4-1.76,2.14-1.71,2.25-3.28,4.62-4.9,6.9-3.48,4.91-6.96,9.82-10.44,14.74.48-.68,1.03-1.27,1.56-1.9-.31.42-.62.84-.92,1.27.82-1.16,1.71-2.23,2.66-3.25,7.04-7.19,17-10.72,27.1-10.95,12.29-.29,24.43,3.7,35.14,9.5,10.95,5.93,20.73,14,28.91,23.37,7.99,9.16,14.59,19.7,18.71,31.17,3.5,9.73,5.32,20.38,3.71,30.67-1.17,7.48-4.34,14.53-9.41,20-1.61,1.64-3.37,3.15-5.33,4.44.61-.4,1.22-.8,1.83-1.21-.8.64-1.6,1.27-2.47,1.84,7.35-4.85,14.7-9.69,22.04-14.54,1.76-1.16,3.33-2.52,4.78-4,4.2-4.03,7.17-9.2,8.73-14.88,3.21-11.68,1-24.34-3.08-35.52Z"/>
          <path class="st3" d="M357.69,264.02c-.05.19-.07.26,0,0h0Z"/>
          <path class="st3" d="M357.94,263.11c-.13.46-.2.75-.25.92.19-.7.96-3.5.25-.92Z"/>
        </g>
        <polygon class="st3" points="352.77 420.51 323.39 428.09 262.05 426.87 288.84 418.25 352.77 420.51"/>
        <path class="st3" d="M288.71,416.01c-.2-3.04-.47-6.08-.83-9.12.11.92.22,1.84,0-.01-.21-1.81-.11-.92,0,0-2.88-24.67-11.11-48.84-25.39-69.28-14.33-20.52-34.57-36.59-58.22-45-11.85-4.21-24.35-6.52-36.91-6.97-6.21-.22-12.43.01-18.61.67-1.48.16-2.95.34-4.42.54-.25.03-.63.09-.88.12h0s-5.76.84-9.27,1.64c.38-.09.77-.15.02,0-.76.16-.37.09.01,0-2.94.62-5.86,1.34-8.75,2.15-.52.14-.62.55-.89,1.02-1.21,2.04-2.42,4.08-3.63,6.12-2.73,4.61-5.46,9.22-8.2,13.83-.11.19-.23.39-.35.58,2.91-.92,5.85-1.75,8.81-2.48,1.4-.35,2.79-.67,4.2-.97.69-.15,1.39-.29,2.09-.43.24-.05,1.46-.28,1.77-.33,24.44-4.46,50.26-1.72,72.46,9.77,22.12,11.45,39.09,30.92,49.02,53.62,7.61,17.41,11.12,36.41,11.32,55.37,8.76-2.82,17.52-5.64,26.27-8.45.15-.05.31-.1.46-.15.2-.07-.05-1.98-.07-2.26Z"/>
        <polygon class="st3" points="125.11 290.87 112.4 312.32 86.54 237.95 95.72 210.86 125.11 290.87"/>
        <g>
          <path class="st3" d="M169.43,167.7c-.25.85.25-.84,0,0h0Z"/>
          <path class="st3" d="M154.34,114.81c-.41-.51-.81-1.02-1.22-1.52-.1-.12-.2-.23-.3-.35-2.69-3.21-5.53-6.23-8.45-9-.15-.14-.34-.32-.51-.47-.03-.02-.05-.05-.08-.07-.05-.05-.1-.09-.15-.14-1.16-1.07-2.53-2.31-3.8-3.43-.43-.38-.84-.78-1.27-1.15,0,.01,0,.02-.01.03-.08-.07-.19-.16-.27-.23-3.12,8.89-6.59,18.62-9.71,27.51-.14.4-.28.8-.42,1.2-.06.18,2.02,1.78,2.27,1.99,1.2,1.06,2.37,2.15,3.53,3.26,4.32,4.17,8.32,8.68,11.81,13.58,6.96,9.76,12,21.3,12.2,33.44.12,7.41-1.6,14.77-4.98,21.36.81-1.59,1.63-3.17,2.44-4.76-.55,1.4-1.12,2.79-1.8,4.12,4.2-8.2,8.4-16.4,12.6-24.6,1.3-2.54,2.4-5.16,3.21-7.89,5.61-19.1-2.97-37.91-15.09-52.89Z"/>
        </g>
        <path class="st3" d="M424.14,348.01c-8.63-7.27-18.72-13.51-30.09-15.08-5.79-.82-11.74-.25-17.13,2.09-1.16.52-2.31,1.07-3.46,1.61-7.26,3.37-14.52,6.75-21.79,10.13,11.31-4.95,23.98-2.48,34.52,3.19,2.67,1.43,5.23,3.06,7.68,4.84,1.14.82,2.25,1.68,3.35,2.56.56.45,1.11.91,1.66,1.37.13.11.99.98,1.11.94,1.31-.5,2.63-.99,3.94-1.49,7.41-2.8,14.82-5.6,22.23-8.4-.67-.59-1.34-1.18-2.02-1.75-.68-.57.67.57,0,0Z"/>
      </g>
    </g>
    <path class="st3" d="M437.29,182.56c8.26,22.49,13.48,45.45,15.6,68.05,2.18,23.17,1.23,46.33-2.9,68.55-4.3,23.06-12.08,45.44-23.49,66.05-11.87,21.56-27.9,41.4-48.19,58.27-13.85,11.49-28.95,20.96-45.02,28.42-16.66,7.76-34.37,13.21-52.77,16.45-18.96,3.35-38.59,4.37-58.53,2.88-20.59-1.49-41.29-5.57-61.8-12.26,23.32,12.36,47.55,21.01,71.84,25.93,23.62,4.77,47.11,5.92,69.76,3.6,21.85-2.18,42.89-7.71,62.47-16.32,18.88-8.26,36.4-19.53,52.16-33.49,18.93-16.94,33.84-36.77,44.96-58.12,10.65-20.48,17.89-42.61,21.78-65.42,3.88-21.96,4.72-44.83,2.65-67.71-2.09-22.36-6.91-44.91-14.64-67.15-2.68-1.69-5.37-3.39-8.1-4.96-2.75-1.61-5.52-3.14-8.37-4.58-2.83-1.6-5.66-2.92-8.57-4.32-2.95-1.31-5.85-2.63-8.83-3.87M362.45,83.2c11.25,6.63,22.11,14.21,32.47,22.54,10.24,8.26,19.96,17.29,29.02,27.05,9.1,9.72,17.58,20.1,25.46,31.24,7.8,11.11,15.01,22.84,21.44,35.24-1.47-4.24-3.13-8.42-4.79-12.6-1.67-4.21-3.48-8.38-5.37-12.56-1.93-4.18-3.9-8.36-5.98-12.46-2.16-4.16-4.36-8.27-6.7-12.33-3.38-5.99-6.94-11.76-10.67-17.4-3.7-5.68-7.57-11.18-11.54-16.48-4-5.26-8.21-10.41-12.49-15.43-4.28-4.99-8.76-9.8-13.31-14.49-3.05-.56-6.17-1.04-9.27-1.41-3.15-.44-6.21-.69-9.41-.93-3.12-.17-6.23-.31-9.37-.32-3.14-.01-6.34.14-9.49.32M161.63,4.96c-31.6,6.84-59.84,20.46-83.64,39.77-25.3,20.37-45.43,47.06-58.93,78.34C4.94,155.92-1.82,193.41.42,233.03c2.4,40.85,14.17,83.05,36.39,123.47,5.33,9.62,11.08,18.85,17.27,27.84,6.17,8.87,12.75,17.3,19.67,25.34,6.89,8.05,14.15,15.66,21.7,22.78,7.5,7.09,15.31,13.75,23.33,19.91,5.87-.74,11.7-1.59,17.5-2.63,5.72-1.07,11.42-2.29,17-3.58,5.57-1.36,11.09-2.87,16.51-4.49,5.34-1.65,10.71-3.37,15.94-5.35-18-5.76-35.67-13.6-52.75-23.34-17.36-9.82-33.98-21.54-49.42-35.04-15.65-13.66-30.04-29.03-42.82-45.94-12.86-16.94-23.97-35.33-33-54.89,5.34,2.54,10.72,4.8,16.14,7.06,5.44,2.1,10.92,4.23,16.41,6.13,5.49,1.9,11.02,3.72,16.57,5.46,5.57,1.58,11.1,3.13,16.73,4.55-8.98-33.05-11.5-65.83-8.25-96.74,3.09-29.88,11.6-57.58,24.66-81.84,12.53-23.18,29.14-43.02,49.14-58.54,19.1-14.83,41.12-25.71,65.48-31.91,15.52-3.98,31.18-5.85,46.7-5.88,15.1-.02,30.17,1.62,44.89,4.9,14.35,3.09,28.49,7.68,42.25,13.55,13.38,5.72,26.5,12.68,38.97,20.84-14.54-12.13-30.1-22.74-46.31-31.69-16.62-9.21-34.14-16.73-52.07-22.18-18.45-5.66-37.52-9.27-56.86-10.41-20.06-1.25-40.38.13-60.58,4.52"/>
  </g>
  <g>
    <path class="st3" d="M529.27,407.19h4.87v48.74h-4.87v-48.74Z"/>
    <path class="st3" d="M544.55,419.88h4.64v6.46c1.86-2.47,3.91-4.32,6.16-5.55,2.25-1.23,4.71-1.84,7.36-1.84s5.09.68,7.17,2.05,3.63,3.21,4.62,5.53c.99,2.32,1.49,5.93,1.49,10.84v18.56h-4.64v-17.2c0-4.15-.17-6.93-.51-8.32-.54-2.39-1.57-4.18-3.1-5.38s-3.51-1.81-5.96-1.81c-2.81,0-5.32.93-7.54,2.78-2.22,1.86-3.68,4.15-4.39,6.89-.44,1.79-.66,5.06-.66,9.81v13.22h-4.64v-36.05Z"/>
    <path class="st3" d="M617.02,419.88h4.64v28.73c0,5.06-.44,8.76-1.33,11.1-1.21,3.31-3.32,5.87-6.33,7.65-3,1.79-6.62,2.68-10.84,2.68-3.09,0-5.87-.44-8.33-1.31-2.46-.87-4.47-2.05-6.01-3.52-1.55-1.47-2.97-3.63-4.27-6.46h5.04c1.37,2.39,3.14,4.15,5.31,5.3,2.17,1.15,4.85,1.72,8.06,1.72s5.83-.59,8.01-1.77c2.18-1.18,3.73-2.66,4.66-4.44.93-1.78,1.39-4.66,1.39-8.64v-1.86c-1.75,2.21-3.88,3.9-6.4,5.09-2.52,1.18-5.2,1.77-8.03,1.77-3.31,0-6.43-.82-9.35-2.47-2.92-1.65-5.17-3.86-6.77-6.64-1.59-2.78-2.39-5.84-2.39-9.18s.83-6.44,2.49-9.33c1.66-2.88,3.95-5.16,6.89-6.84,2.93-1.68,6.02-2.52,9.27-2.52,2.7,0,5.21.56,7.55,1.67,2.33,1.12,4.58,2.95,6.75,5.52v-6.26ZM603.33,423.43c-2.63,0-5.07.64-7.32,1.91s-4.02,3.03-5.3,5.27c-1.28,2.24-1.92,4.67-1.92,7.27,0,3.95,1.33,7.22,3.98,9.81,2.65,2.58,6.09,3.88,10.31,3.88s7.69-1.28,10.29-3.84c2.6-2.56,3.89-5.93,3.89-10.11,0-2.72-.6-5.14-1.79-7.27s-2.88-3.82-5.07-5.05-4.54-1.86-7.06-1.86Z"/>
    <path class="st3" d="M661.95,443.97l3.91,2.05c-1.28,2.52-2.76,4.55-4.45,6.1-1.68,1.55-3.57,2.72-5.67,3.53-2.1.81-4.48,1.21-7.13,1.21-5.88,0-10.48-1.93-13.8-5.78-3.32-3.85-4.98-8.21-4.98-13.07,0-4.57,1.4-8.65,4.21-12.23,3.56-4.55,8.32-6.83,14.29-6.83s11.06,2.33,14.72,6.99c2.61,3.29,3.94,7.4,3.98,12.33h-32.44c.09,4.19,1.42,7.62,4.01,10.3,2.58,2.68,5.78,4.01,9.59,4.01,1.83,0,3.62-.32,5.36-.96,1.73-.64,3.21-1.49,4.43-2.55,1.21-1.05,2.53-2.76,3.95-5.11ZM661.95,434.26c-.62-2.47-1.52-4.45-2.71-5.93-1.18-1.48-2.74-2.67-4.69-3.58-1.94-.91-3.99-1.36-6.14-1.36-3.54,0-6.58,1.14-9.12,3.41-1.86,1.66-3.26,4.14-4.21,7.46h26.87Z"/>
    <path class="st3" d="M675.7,419.88h4.64v6.46c1.86-2.47,3.91-4.32,6.16-5.55,2.25-1.23,4.71-1.84,7.36-1.84s5.09.68,7.17,2.05,3.63,3.21,4.62,5.53,1.49,5.93,1.49,10.84v18.56h-4.64v-17.2c0-4.15-.17-6.93-.51-8.32-.54-2.39-1.57-4.18-3.1-5.38-1.52-1.2-3.51-1.81-5.96-1.81-2.81,0-5.32.93-7.54,2.78-2.22,1.86-3.68,4.15-4.39,6.89-.44,1.79-.66,5.06-.66,9.81v13.22h-4.64v-36.05Z"/>
    <path class="st3" d="M718.69,405.04c1.05,0,1.96.38,2.71,1.13.75.75,1.12,1.66,1.12,2.72s-.38,1.93-1.12,2.68c-.75.75-1.65,1.13-2.71,1.13s-1.93-.38-2.67-1.13-1.12-1.65-1.12-2.68.38-1.97,1.12-2.72,1.64-1.13,2.67-1.13ZM716.39,419.88h4.64v36.05h-4.64v-36.05Z"/>
    <path class="st3" d="M761.02,443.97l3.91,2.05c-1.28,2.52-2.76,4.55-4.45,6.1-1.68,1.55-3.57,2.72-5.67,3.53-2.1.81-4.48,1.21-7.13,1.21-5.88,0-10.48-1.93-13.8-5.78-3.32-3.85-4.98-8.21-4.98-13.07,0-4.57,1.4-8.65,4.21-12.23,3.56-4.55,8.32-6.83,14.29-6.83s11.06,2.33,14.72,6.99c2.61,3.29,3.94,7.4,3.98,12.33h-32.44c.09,4.19,1.42,7.62,4.01,10.3,2.58,2.68,5.78,4.01,9.59,4.01,1.83,0,3.62-.32,5.36-.96,1.73-.64,3.21-1.49,4.43-2.55,1.21-1.05,2.53-2.76,3.95-5.11ZM761.02,434.26c-.62-2.47-1.52-4.45-2.71-5.93-1.18-1.48-2.74-2.67-4.69-3.58-1.94-.91-3.99-1.36-6.14-1.36-3.54,0-6.58,1.14-9.12,3.41-1.86,1.66-3.26,4.14-4.21,7.46h26.87Z"/>
    <path class="st3" d="M773.02,419.88h4.74v5.27c1.41-2.08,2.9-3.63,4.47-4.66s3.2-1.54,4.9-1.54c1.28,0,2.65.41,4.11,1.23l-2.42,3.91c-.97-.42-1.79-.63-2.45-.63-1.55,0-3.04.64-4.47,1.91-1.44,1.27-2.53,3.24-3.28,5.91-.57,2.05-.86,6.21-.86,12.46v12.19h-4.74v-36.05Z"/>
    <path class="st3" d="M799.1,402.98h7.12l-9.78,10.21h-4.57l7.22-10.21ZM794.49,419.88h4.64v36.05h-4.64v-36.05Z"/>
    <path class="st3" d="M844.69,419.88v36.05h-4.57v-6.2c-1.94,2.36-4.13,4.14-6.54,5.33s-5.06,1.79-7.94,1.79c-5.1,0-9.46-1.85-13.07-5.55-3.61-3.7-5.42-8.2-5.42-13.5s1.82-9.63,5.47-13.32c3.64-3.69,8.03-5.53,13.16-5.53,2.96,0,5.64.63,8.04,1.89,2.4,1.26,4.5,3.15,6.31,5.67v-6.63h4.57ZM826.15,423.43c-2.58,0-4.96.64-7.15,1.91-2.18,1.26-3.92,3.05-5.21,5.35-1.29,2.29-1.94,4.72-1.94,7.28s.65,4.96,1.96,7.28c1.3,2.31,3.05,4.12,5.24,5.41,2.2,1.29,4.55,1.94,7.07,1.94s4.94-.64,7.22-1.92c2.27-1.28,4.02-3.01,5.24-5.19,1.23-2.19,1.84-4.65,1.84-7.38,0-4.17-1.38-7.65-4.12-10.46-2.75-2.8-6.13-4.2-10.15-4.2Z"/>
    <path class="st3" d="M904.27,443.97l3.91,2.05c-1.28,2.52-2.76,4.55-4.45,6.1-1.68,1.55-3.57,2.72-5.67,3.53-2.1.81-4.48,1.21-7.13,1.21-5.88,0-10.48-1.93-13.8-5.78-3.32-3.85-4.98-8.21-4.98-13.07,0-4.57,1.4-8.65,4.21-12.23,3.56-4.55,8.32-6.83,14.29-6.83s11.06,2.33,14.72,6.99c2.61,3.29,3.94,7.4,3.98,12.33h-32.44c.09,4.19,1.42,7.62,4.01,10.3,2.58,2.68,5.78,4.01,9.59,4.01,1.83,0,3.62-.32,5.36-.96,1.73-.64,3.21-1.49,4.43-2.55,1.21-1.05,2.53-2.76,3.95-5.11ZM904.27,434.26c-.62-2.47-1.52-4.45-2.71-5.93-1.18-1.48-2.74-2.67-4.69-3.58-1.94-.91-3.99-1.36-6.14-1.36-3.54,0-6.58,1.14-9.12,3.41-1.86,1.66-3.26,4.14-4.21,7.46h26.87Z"/>
    <path class="st3" d="M918.02,419.88h4.64v6.46c1.86-2.47,3.91-4.32,6.16-5.55,2.25-1.23,4.71-1.84,7.36-1.84s5.09.68,7.17,2.05c2.09,1.37,3.63,3.21,4.62,5.53.99,2.32,1.49,5.93,1.49,10.84v18.56h-4.64v-17.2c0-4.15-.17-6.93-.51-8.32-.54-2.39-1.57-4.18-3.1-5.38s-3.51-1.81-5.96-1.81c-2.81,0-5.32.93-7.54,2.78-2.22,1.86-3.68,4.15-4.39,6.89-.44,1.79-.66,5.06-.66,9.81v13.22h-4.64v-36.05Z"/>
    <path class="st3" d="M978.17,419.88h4.64v6.23c1.61-2.3,3.27-3.98,4.98-5.04,2.35-1.41,4.81-2.12,7.4-2.12,1.75,0,3.4.34,4.98,1.03,1.57.68,2.85,1.6,3.84,2.73,1,1.14,1.86,2.77,2.59,4.89,1.54-2.83,3.47-4.98,5.78-6.44,2.32-1.47,4.8-2.2,7.47-2.2,2.49,0,4.69.63,6.59,1.89,1.91,1.26,3.32,3.02,4.25,5.27.92,2.25,1.39,5.63,1.39,10.14v19.68h-4.74v-19.68c0-3.87-.28-6.52-.83-7.97-.55-1.45-1.49-2.61-2.82-3.5s-2.92-1.33-4.77-1.33c-2.25,0-4.3.66-6.16,1.99s-3.22,3.09-4.08,5.3c-.86,2.21-1.29,5.9-1.29,11.07v14.12h-4.64v-18.46c0-4.35-.27-7.31-.81-8.86s-1.49-2.81-2.83-3.74-2.95-1.41-4.8-1.41c-2.14,0-4.15.65-6.01,1.94-1.87,1.29-3.25,3.03-4.14,5.22-.89,2.19-1.34,5.53-1.34,10.04v15.28h-4.64v-36.05Z"/>
    <path class="st3" d="M1077.77,419.88v36.05h-4.57v-6.2c-1.94,2.36-4.13,4.14-6.54,5.33s-5.06,1.79-7.94,1.79c-5.1,0-9.46-1.85-13.07-5.55-3.61-3.7-5.42-8.2-5.42-13.5s1.82-9.63,5.47-13.32c3.64-3.69,8.03-5.53,13.16-5.53,2.96,0,5.64.63,8.04,1.89s4.5,3.15,6.31,5.67v-6.63h4.57ZM1059.23,423.43c-2.58,0-4.96.64-7.15,1.91-2.18,1.26-3.92,3.05-5.21,5.35-1.29,2.29-1.94,4.72-1.94,7.28s.65,4.96,1.96,7.28c1.3,2.31,3.05,4.12,5.24,5.41,2.2,1.29,4.55,1.94,7.07,1.94s4.94-.64,7.22-1.92c2.27-1.28,4.02-3.01,5.24-5.19,1.23-2.19,1.84-4.65,1.84-7.38,0-4.17-1.38-7.65-4.12-10.46-2.75-2.8-6.13-4.2-10.15-4.2Z"/>
    <path class="st3" d="M1088.21,419.88h4.64v6.46c1.86-2.47,3.91-4.32,6.16-5.55,2.25-1.23,4.71-1.84,7.36-1.84s5.09.68,7.17,2.05c2.09,1.37,3.63,3.21,4.62,5.53.99,2.32,1.49,5.93,1.49,10.84v18.56h-4.64v-17.2c0-4.15-.17-6.93-.51-8.32-.54-2.39-1.57-4.18-3.1-5.38s-3.51-1.81-5.96-1.81c-2.81,0-5.32.93-7.54,2.78s-3.68,4.15-4.39,6.89c-.44,1.79-.66,5.06-.66,9.81v13.22h-4.64v-36.05Z"/>
    <path class="st3" d="M1133.64,406.5h4.64v13.39h7.36v4.01h-7.36v32.04h-4.64v-32.04h-6.33v-4.01h6.33v-13.39Z"/>
    <path class="st3" d="M1182.95,443.97l3.91,2.05c-1.28,2.52-2.76,4.55-4.45,6.1-1.68,1.55-3.57,2.72-5.67,3.53-2.1.81-4.48,1.21-7.13,1.21-5.88,0-10.48-1.93-13.8-5.78-3.32-3.85-4.98-8.21-4.98-13.07,0-4.57,1.4-8.65,4.21-12.23,3.56-4.55,8.32-6.83,14.29-6.83s11.06,2.33,14.72,6.99c2.61,3.29,3.94,7.4,3.98,12.33h-32.44c.09,4.19,1.42,7.62,4.01,10.3,2.58,2.68,5.78,4.01,9.59,4.01,1.83,0,3.62-.32,5.36-.96,1.73-.64,3.21-1.49,4.43-2.55,1.21-1.05,2.53-2.76,3.95-5.11ZM1182.95,434.26c-.62-2.47-1.52-4.45-2.71-5.93-1.18-1.48-2.74-2.67-4.69-3.58-1.94-.91-3.99-1.36-6.14-1.36-3.54,0-6.58,1.14-9.12,3.41-1.86,1.66-3.26,4.14-4.21,7.46h26.87Z"/>
    <path class="st3" d="M1196.7,419.88h4.64v6.46c1.86-2.47,3.91-4.32,6.16-5.55s4.71-1.84,7.36-1.84,5.09.68,7.17,2.05,3.63,3.21,4.62,5.53,1.49,5.93,1.49,10.84v18.56h-4.64v-17.2c0-4.15-.17-6.93-.51-8.32-.54-2.39-1.57-4.18-3.1-5.38-1.52-1.2-3.51-1.81-5.96-1.81-2.81,0-5.32.93-7.54,2.78-2.22,1.86-3.68,4.15-4.39,6.89-.44,1.79-.66,5.06-.66,9.81v13.22h-4.64v-36.05Z"/>
    <path class="st3" d="M1239.69,405.04c1.05,0,1.96.38,2.71,1.13.75.75,1.12,1.66,1.12,2.72s-.38,1.93-1.12,2.68c-.75.75-1.65,1.13-2.71,1.13s-1.93-.38-2.67-1.13-1.12-1.65-1.12-2.68.38-1.97,1.12-2.72c.75-.75,1.64-1.13,2.67-1.13ZM1237.39,419.88h4.64v36.05h-4.64v-36.05Z"/>
    <path class="st3" d="M1251.64,419.88h4.64v6.23c1.61-2.3,3.27-3.98,4.98-5.04,2.35-1.41,4.81-2.12,7.4-2.12,1.75,0,3.4.34,4.98,1.03,1.57.68,2.85,1.6,3.84,2.73,1,1.14,1.86,2.77,2.59,4.89,1.54-2.83,3.47-4.98,5.78-6.44,2.32-1.47,4.8-2.2,7.47-2.2,2.49,0,4.69.63,6.59,1.89,1.91,1.26,3.32,3.02,4.25,5.27.92,2.25,1.39,5.63,1.39,10.14v19.68h-4.74v-19.68c0-3.87-.28-6.52-.83-7.97-.55-1.45-1.49-2.61-2.82-3.5s-2.92-1.33-4.77-1.33c-2.25,0-4.3.66-6.16,1.99s-3.22,3.09-4.08,5.3c-.86,2.21-1.29,5.9-1.29,11.07v14.12h-4.64v-18.46c0-4.35-.27-7.31-.81-8.86s-1.49-2.81-2.83-3.74-2.95-1.41-4.8-1.41c-2.14,0-4.15.65-6.01,1.94-1.87,1.29-3.25,3.03-4.14,5.22s-1.34,5.53-1.34,10.04v15.28h-4.64v-36.05Z"/>
    <path class="st3" d="M1316.93,405.04c1.05,0,1.96.38,2.71,1.13.75.75,1.12,1.66,1.12,2.72s-.38,1.93-1.12,2.68c-.75.75-1.65,1.13-2.71,1.13s-1.93-.38-2.67-1.13-1.12-1.65-1.12-2.68.38-1.97,1.12-2.72,1.64-1.13,2.67-1.13ZM1314.63,419.88h4.64v36.05h-4.64v-36.05Z"/>
    <path class="st3" d="M1359.26,443.97l3.91,2.05c-1.28,2.52-2.76,4.55-4.45,6.1-1.68,1.55-3.57,2.72-5.67,3.53-2.1.81-4.48,1.21-7.13,1.21-5.88,0-10.48-1.93-13.8-5.78-3.32-3.85-4.98-8.21-4.98-13.07,0-4.57,1.4-8.65,4.21-12.23,3.56-4.55,8.32-6.83,14.29-6.83s11.06,2.33,14.72,6.99c2.61,3.29,3.94,7.4,3.98,12.33h-32.44c.09,4.19,1.42,7.62,4.01,10.3,2.58,2.68,5.78,4.01,9.59,4.01,1.83,0,3.62-.32,5.36-.96,1.73-.64,3.21-1.49,4.43-2.55,1.21-1.05,2.53-2.76,3.95-5.11ZM1359.26,434.26c-.62-2.47-1.52-4.45-2.71-5.93-1.18-1.48-2.74-2.67-4.69-3.58-1.94-.91-3.99-1.36-6.14-1.36-3.54,0-6.58,1.14-9.12,3.41-1.86,1.66-3.26,4.14-4.21,7.46h26.87Z"/>
    <path class="st3" d="M1373.01,419.88h4.64v6.46c1.86-2.47,3.91-4.32,6.16-5.55s4.71-1.84,7.36-1.84,5.09.68,7.17,2.05c2.09,1.37,3.63,3.21,4.62,5.53.99,2.32,1.49,5.93,1.49,10.84v18.56h-4.64v-17.2c0-4.15-.17-6.93-.51-8.32-.54-2.39-1.57-4.18-3.1-5.38-1.52-1.2-3.51-1.81-5.96-1.81-2.81,0-5.32.93-7.54,2.78-2.22,1.86-3.68,4.15-4.39,6.89-.44,1.79-.66,5.06-.66,9.81v13.22h-4.64v-36.05Z"/>
    <path class="st3" d="M1418.44,406.5h4.64v13.39h7.36v4.01h-7.36v32.04h-4.64v-32.04h-6.33v-4.01h6.33v-13.39Z"/>
    <path class="st3" d="M1454.46,418.95c5.56,0,10.16,2.01,13.81,6.03,3.32,3.67,4.98,8.01,4.98,13.02s-1.76,9.44-5.26,13.2c-3.51,3.77-8.01,5.65-13.53,5.65s-10.05-1.88-13.56-5.65c-3.51-3.77-5.26-8.17-5.26-13.2s1.66-9.32,4.98-12.99c3.65-4.04,8.26-6.06,13.84-6.06ZM1454.45,423.49c-3.85,0-7.17,1.42-9.94,4.27-2.77,2.85-4.16,6.3-4.16,10.34,0,2.61.63,5.04,1.89,7.29s2.97,3.99,5.12,5.22c2.15,1.23,4.51,1.84,7.09,1.84s4.93-.61,7.09-1.84c2.15-1.23,3.85-2.97,5.12-5.22,1.26-2.25,1.89-4.68,1.89-7.29,0-4.04-1.39-7.49-4.18-10.34s-6.09-4.27-9.92-4.27Z"/>
    <path class="st3" d="M1502.23,405.04c1.05,0,1.96.38,2.71,1.13.75.75,1.12,1.66,1.12,2.72s-.38,1.93-1.12,2.68c-.75.75-1.65,1.13-2.71,1.13s-1.93-.38-2.67-1.13-1.12-1.65-1.12-2.68.38-1.97,1.12-2.72,1.64-1.13,2.67-1.13ZM1499.93,419.88h4.64v36.05h-4.64v-36.05Z"/>
    <path class="st3" d="M1514.21,419.88h4.64v6.46c1.86-2.47,3.91-4.32,6.16-5.55s4.71-1.84,7.36-1.84,5.09.68,7.17,2.05,3.63,3.21,4.62,5.53c.99,2.32,1.49,5.93,1.49,10.84v18.56h-4.64v-17.2c0-4.15-.17-6.93-.51-8.32-.54-2.39-1.57-4.18-3.1-5.38-1.52-1.2-3.51-1.81-5.96-1.81-2.81,0-5.32.93-7.54,2.78-2.22,1.86-3.68,4.15-4.39,6.89-.44,1.79-.66,5.06-.66,9.81v13.22h-4.64v-36.05Z"/>
    <path class="st3" d="M1591.58,405.97v49.97h-4.57v-6.2c-1.94,2.36-4.13,4.14-6.54,5.33-2.42,1.19-5.06,1.79-7.94,1.79-5.1,0-9.46-1.85-13.07-5.55-3.61-3.7-5.42-8.2-5.42-13.5s1.82-9.63,5.47-13.32c3.64-3.69,8.03-5.53,13.16-5.53,2.96,0,5.64.63,8.04,1.89s4.5,3.15,6.31,5.67v-20.54h4.57ZM1573.04,423.43c-2.58,0-4.96.64-7.15,1.91-2.18,1.26-3.92,3.05-5.21,5.35-1.29,2.29-1.94,4.72-1.94,7.28s.65,4.96,1.96,7.28c1.3,2.31,3.05,4.12,5.24,5.41,2.2,1.29,4.55,1.94,7.07,1.94s4.94-.64,7.22-1.92c2.27-1.28,4.02-3.01,5.24-5.19,1.23-2.19,1.84-4.65,1.84-7.38,0-4.17-1.38-7.65-4.12-10.46-2.75-2.8-6.13-4.2-10.15-4.2Z"/>
    <path class="st3" d="M1601.49,419.88h4.64v16.83c0,4.11.22,6.94.66,8.48.66,2.21,1.93,3.95,3.8,5.24,1.87,1.28,4.1,1.92,6.69,1.92s4.78-.62,6.59-1.87c1.8-1.25,3.05-2.89,3.73-4.92.46-1.39.7-4.34.7-8.85v-16.83h4.74v17.69c0,4.97-.58,8.71-1.74,11.23s-2.9,4.49-5.24,5.91-5.25,2.14-8.76,2.14-6.44-.71-8.8-2.14-4.11-3.41-5.27-5.96c-1.16-2.55-1.74-6.39-1.74-11.51v-17.36Z"/>
    <path class="st3" d="M1661.46,423.83l-2.98,3.08c-2.48-2.41-4.9-3.61-7.27-3.61-1.51,0-2.8.5-3.87,1.49-1.08.99-1.61,2.15-1.61,3.48,0,1.17.44,2.29,1.33,3.35.89,1.08,2.75,2.35,5.58,3.81,3.45,1.79,5.8,3.51,7.04,5.17,1.22,1.68,1.83,3.57,1.83,5.67,0,2.96-1.04,5.47-3.12,7.52s-4.68,3.08-7.8,3.08c-2.08,0-4.06-.45-5.96-1.36-1.89-.91-3.46-2.15-4.69-3.74l2.92-3.31c2.37,2.67,4.88,4.01,7.54,4.01,1.86,0,3.45-.6,4.75-1.79,1.31-1.19,1.96-2.6,1.96-4.21,0-1.33-.43-2.51-1.29-3.55-.87-1.02-2.82-2.3-5.85-3.84-3.25-1.68-5.47-3.34-6.64-4.97-1.18-1.63-1.76-3.5-1.76-5.6,0-2.74.93-5.01,2.81-6.83,1.87-1.81,4.23-2.72,7.09-2.72,3.32,0,6.66,1.62,10.02,4.87Z"/>
    <path class="st3" d="M1673.72,406.5h4.64v13.39h7.36v4.01h-7.36v32.04h-4.64v-32.04h-6.33v-4.01h6.33v-13.39Z"/>
    <path class="st3" d="M1690.92,419.88h4.74v5.27c1.41-2.08,2.9-3.63,4.47-4.66,1.57-1.03,3.2-1.54,4.9-1.54,1.28,0,2.65.41,4.11,1.23l-2.42,3.91c-.97-.42-1.79-.63-2.45-.63-1.55,0-3.04.64-4.47,1.91s-2.53,3.24-3.28,5.91c-.57,2.05-.86,6.21-.86,12.46v12.19h-4.74v-36.05Z"/>
    <path class="st3" d="M1714.7,405.04c1.05,0,1.96.38,2.71,1.13.75.75,1.12,1.66,1.12,2.72s-.38,1.93-1.12,2.68c-.75.75-1.65,1.13-2.71,1.13s-1.93-.38-2.67-1.13-1.12-1.65-1.12-2.68.38-1.97,1.12-2.72,1.64-1.13,2.67-1.13ZM1712.39,419.88h4.64v36.05h-4.64v-36.05Z"/>
    <path class="st3" d="M1762.59,419.88v36.05h-4.57v-6.2c-1.94,2.36-4.13,4.14-6.54,5.33s-5.06,1.79-7.94,1.79c-5.1,0-9.46-1.85-13.07-5.55-3.61-3.7-5.42-8.2-5.42-13.5s1.82-9.63,5.47-13.32c3.64-3.69,8.03-5.53,13.16-5.53,2.96,0,5.64.63,8.04,1.89,2.4,1.26,4.5,3.15,6.31,5.67v-6.63h4.57ZM1744.05,423.43c-2.58,0-4.96.64-7.15,1.91-2.18,1.26-3.92,3.05-5.21,5.35-1.29,2.29-1.94,4.72-1.94,7.28s.65,4.96,1.96,7.28c1.3,2.31,3.05,4.12,5.24,5.41,2.2,1.29,4.55,1.94,7.07,1.94s4.94-.64,7.22-1.92c2.27-1.28,4.02-3.01,5.24-5.19,1.23-2.19,1.84-4.65,1.84-7.38,0-4.17-1.38-7.65-4.12-10.46-2.75-2.8-6.13-4.2-10.15-4.2Z"/>
    <path class="st3" d="M1772.34,405.97h4.64v49.97h-4.64v-49.97Z"/>
  </g>
  <path class="st0" d="M423.29,300.62c-2.16-2.17-4.32-4.51-6.42-6.94-3.95-4.58-7.69-9.54-11.14-14.75-5.85-8.85-10.36-17.68-13.44-26.33-.28-.43-.43-.97-.63-1.66l-1.06-3.62h0s-.31-1.03-.31-1.03h.02c-1.41-5.15-2.63-11.01-2.27-17.04.45-7.41,3.5-13.07,8.34-15.77l-20.61-30.19c-.08-.12-.19-.31-.32-.52-1.46.18-2.9,0-4.18-.17-2.19-.28-4.4-.8-6.79-1.58-.92-.3-1.89-.65-2.87-1.04-5.35-2.11-10.76-5.12-16.53-9.19-9.63-6.78-18.24-15.04-25.62-24.56-4.06-5.24-7.23-10.19-9.68-15.13-1.51-3.03-2.64-5.83-3.45-8.56-.35-1.16-.7-2.39-.89-3.69l-31.09-17.15c-.28,1.9-.84,3.7-1.65,5.34-4.44,8.94-15.83,12.25-32.06,9.3-4.06-.74-8.25-1.81-12.44-3.19-7.44-2.45-14.96-5.84-23.01-10.35-5.56-3.13-10.94-6.58-15.99-10.26-2.56-1.87-5.08-3.82-7.48-5.81-1-.83-1.98-1.66-2.94-2.5l-34.45,12.07c9.11,8.27,16.33,16.98,21.49,25.93,6.2,10.73,9.17,21.31,8.83,31.44-.39,11.87-5.53,23.26-14.46,32.07-7.16,7.06-16.7,12.77-28.38,16.98-9.48,3.42-20.12,5.75-31.67,6.95,2.64,7.21,5.29,14.41,7.94,21.62l19.63,53.42c2.17-.58,4.2-1.07,6.16-1.51,6.16-1.36,12.4-2.31,18.54-2.84,17.32-1.48,34.95.53,50.99,5.81,6.68,2.2,13.15,4.98,19.25,8.26,19.7,10.61,36.44,26.88,48.39,47.04,11.06,18.64,18.18,40.87,20.59,64.29.28,2.72.46,4.89.57,6.89l58.88,2.08c-.57-4.08-1-8.12-1.27-12.04-.98-13.77-.24-25.82,2.25-36.83,3.04-13.42,8.38-23.63,15.88-30.36,7.6-6.81,17.92-9.77,28.32-8.1,2.43.39,4.89.99,7.32,1.79,7.12,2.35,14.06,6.33,21.6,12.42l2.37-36.74c0-.05.01-.1.01-.15-.35-.32-.69-.63-1.03-.95-1.07-1-2.16-2.05-3.23-3.13ZM361.55,259.63c-2.74,10.7-10.17,19.47-19.88,23.47-9.23,3.8-20.26,4.03-32.77.67-1.53-.41-3.08-.87-4.61-1.37-.59-.2-1.19-.4-1.78-.61-20.4-7.2-39.71-22.28-54.38-42.47-7.18-9.88-12.46-20.14-15.7-30.51-3.89-12.44-4.4-23.69-1.51-33.41,3.27-11.02,11.17-19.36,21.69-22.9,9.42-3.17,20.42-2.92,32.7.73.76.23,1.52.47,2.28.71,10.25,3.38,20.5,8.95,30.47,16.57,9.35,7.15,17.72,15.65,24.9,25.26,7.25,9.71,12.67,19.86,16.11,30.17,4.17,12.49,5.01,23.82,2.48,33.67Z"/>
  <path class="st0" d="M617.29,216.12c48.72,0,88.26-39.54,88.26-88.26v-6.59h-88.26v31.06h34.12c-7.3,10.59-20.24,17.42-34.12,17.42-21.65,0-41.66-17.65-41.66-41.89s19.54-41.89,41.66-41.89c12,0,21.89,4.71,29.42,11.77l32.71-32.48c-16-15.77-37.89-25.65-62.13-25.65-48.72,0-88.02,39.54-88.02,88.26s39.3,88.26,88.02,88.26Z"/>
  <path class="st1" d="M870.32,104.56c0-35.77-29.18-64.96-64.96-64.96h-74.37v176.51h46.36v-46.83h28.71l27.3,46.83h53.43l-37.42-64.01c12.71-11.77,20.94-28.71,20.94-47.54ZM806.07,129.27h-28.71v-50.6h28.71c14.12,0,25.42,11.3,25.42,25.42s-11.3,25.18-25.42,25.18Z"/>
  <path class="st2" d="M1002.14,145.75c0,12.71-10.36,23.06-23.06,23.06s-23.07-10.36-23.07-23.06V39.6h-46.6v106.85c0,38.83,30.83,69.66,69.66,69.66s69.66-30.83,69.66-69.66V39.6h-46.6v106.14Z"/>
  <path class="st0" d="M1223.39,104.56c0-35.77-29.18-64.96-64.96-64.96h-74.37v176.51h46.36v-46.83h28.95c35.07,0,64.01-29.19,64.01-64.72ZM1159.15,129.27h-28.71v-50.6h28.71c14.12,0,25.42,11.3,25.42,25.42s-11.3,25.18-25.42,25.18Z"/>
  <path class="st0" d="M1332.86,39.6c-48.72,0-88.02,39.77-88.02,88.49s39.31,88.02,88.02,88.02,88.26-39.3,88.26-88.02-39.54-88.49-88.26-88.49ZM1332.86,169.99c-23.07,0-41.89-19.06-41.89-42.13s18.83-42.13,41.89-42.13,42.13,18.83,42.13,42.13-18.83,42.13-42.13,42.13Z"/>
  <path class="st0" d="M586.96,240.8h-57.69v136.91h35.96v-36.33h22.45c27.2,0,49.65-22.64,49.65-50.2s-22.64-50.38-50.38-50.38ZM587.51,310.35h-22.27v-39.25h22.27c10.95,0,19.72,8.76,19.72,19.72s-8.76,19.53-19.72,19.53Z"/>
  <path class="st0" d="M764.78,291.19c0-27.75-22.64-50.38-50.38-50.38h-57.69v136.91h35.96v-36.33h22.27l21.18,36.33h41.44l-29.03-49.65c9.86-9.13,16.25-22.27,16.25-36.88ZM714.95,310.35h-22.27v-39.25h22.27c10.95,0,19.72,8.76,19.72,19.72s-8.76,19.53-19.72,19.53Z"/>
  <polygon class="st0" points="795.29 377.72 880.35 377.72 880.35 348.32 831.25 348.32 831.25 323.13 874.69 323.13 874.69 292.83 831.25 292.83 831.25 270.56 880.35 270.56 880.35 240.8 795.29 240.8 795.29 377.72"/>
  <polygon class="st0" points="966.17 318.57 930.21 240.62 894.06 240.62 957.95 377.72 974.38 377.72 1038.09 240.62 1002.31 240.62 966.17 318.57"/>
  <polygon class="st0" points="1053.81 377.72 1138.88 377.72 1138.88 348.32 1089.77 348.32 1089.77 323.13 1133.22 323.13 1133.22 292.83 1089.77 292.83 1089.77 270.56 1138.88 270.56 1138.88 240.8 1053.81 240.8 1053.81 377.72"/>
  <polygon class="st0" points="1244.05 305.42 1179.24 240.8 1164.64 240.8 1164.64 377.72 1200.6 377.72 1200.6 312.91 1265.22 377.72 1280.01 377.72 1280.01 240.8 1244.05 240.8 1244.05 305.42"/>
  <polygon class="st0" points="1304.67 276.4 1340.27 276.4 1340.27 377.72 1376.23 377.72 1376.23 276.4 1412.56 276.4 1412.56 240.62 1304.67 240.62 1304.67 276.4"/>
  <rect class="st0" x="1437.22" y="240.8" width="35.96" height="136.91"/>
  <polygon class="st0" points="1560.82 318.57 1524.85 240.62 1488.71 240.62 1552.6 377.72 1569.03 377.72 1632.74 240.62 1596.96 240.62 1560.82 318.57"/>
  <path class="st0" d="M1708.52,240.8c-37.79,0-68.28,30.85-68.28,68.64s30.49,68.27,68.28,68.27,68.45-30.49,68.45-68.27-30.67-68.64-68.45-68.64ZM1708.52,341.93c-17.89,0-32.5-14.79-32.5-32.68s14.6-32.68,32.5-32.68,32.67,14.6,32.67,32.68-14.6,32.68-32.67,32.68Z"/>
</svg>